<svg xmlns="http://www.w3.org/2000/svg" height="800" width="1200" viewBox="-79.223505 -20.464875 686.60371 122.78925"><defs><clipPath id="a" clipPathUnits="userSpaceOnUse"><path d="M0 841.89h595.28V0H0z"/></clipPath></defs><path d="M145.4478 38.721h-12.148l18.7467-36.2053h13.4493l17.888 36.2053H169.889l-2.7253-6.5267H148.369zm18.452-14.408l-5.7907-13.1733-6.1346 13.1733zm22.2173-21.7981h11.6587v36.204H186.117zm17.6067 0h11.6587v7.3866h-11.6587zm0 10.9586h11.6587V38.679h-11.6587z" fill="#f60"/><g clip-path="url(#a)" transform="matrix(1.33333 0 0 -1.33333 -132.7749 602.1895)"><path d="M265.8913 449.7558h8.742v-10.939c1.042 1.071 2.205 1.874 3.493 2.41 1.287.533 2.697.803 4.228.803 2.979 0 5.373-.952 7.181-2.856 1.807-1.903 2.71-4.426 2.71-7.57 0-2.861-.891-5.152-2.675-6.878-1.783-1.724-4.149-2.586-7.105-2.586-1.628 0-3.106.296-4.432.891-1.322.595-2.455 1.471-3.4 2.623 0-.626-.022-1.195-.073-1.711-.048-.516-.129-.961-.24-1.341h-8.742c.098.354.173.8.229 1.331.056.534.084 1.143.084 1.831v23.992m17.517-17.772c0 1.67-.393 2.985-1.179 3.949-.783.965-1.85 1.446-3.197 1.446-1.448 0-2.555-.464-3.321-1.391-.765-.927-1.151-2.271-1.151-4.04 0-1.67.388-2.967 1.159-3.894.774-.924 1.851-1.387 3.238-1.387 1.362 0 2.444.477 3.247 1.434.803.958 1.204 2.252 1.204 3.883m28.7821-6.3487c-.831-1.094-1.914-1.903-3.238-2.43-1.326-.527-2.93-.792-4.819-.792-2.691 0-4.756.479-6.203 1.435-1.448.957-2.171 2.312-2.171 4.066 0 2.392 1.247 4.119 3.742 5.182 2.498 1.059 6.677 1.615 12.544 1.664 0 .036.005.107.017.211.013.104.019.18.019.229 0 .967-.292 1.69-.873 2.168-.584.476-1.456.716-2.623.716-1.052 0-1.863-.175-2.427-.524-.562-.348-.899-.873-1.009-1.57h-8.07c.039 2.098 1.031 3.66 2.984 4.683 1.952 1.025 4.926 1.537 8.927 1.537 3.842 0 6.704-.597 8.582-1.793 1.873-1.194 2.815-3.016 2.815-5.457v-9.64c0-.597.029-1.081.084-1.448.055-.368.148-.708.284-1.027h-8.101c-.163.451-.277.907-.352 1.364-.073.459-.112.935-.112 1.426m-.183 5.4c-2.829 0-4.756-.185-5.781-.552-1.027-.368-1.541-1.011-1.541-1.93 0-.624.25-1.111.747-1.459.499-.349 1.202-.524 2.114-.524 1.487 0 2.602.347 3.344 1.038.745.692 1.117 1.736 1.117 3.131zm12.3586 18.7207h8.745v-10.939c1.039 1.071 2.205 1.874 3.492 2.41 1.286.533 2.698.803 4.228.803 2.977 0 5.371-.952 7.18-2.856 1.806-1.903 2.71-4.426 2.71-7.57 0-2.861-.892-5.152-2.676-6.878-1.782-1.724-4.149-2.586-7.105-2.586-1.63 0-3.106.296-4.429.891-1.323.595-2.457 1.471-3.4 2.623 0-.626-.025-1.195-.075-1.711-.048-.516-.128-.961-.24-1.341h-8.742c.096.354.175.8.229 1.331.058.534.083 1.143.083 1.831v23.992m17.518-17.772c0 1.67-.393 2.985-1.177 3.949-.785.965-1.852 1.446-3.201 1.446-1.446 0-2.553-.464-3.319-1.391s-1.151-2.271-1.151-4.04c0-1.67.386-2.967 1.158-3.894.776-.924 1.853-1.387 3.24-1.387 1.361 0 2.44.477 3.245 1.434.804.958 1.205 2.252 1.205 3.883m28.7825-6.3487c-.834-1.094-1.911-1.903-3.237-2.43-1.327-.527-2.931-.792-4.821-.792-2.686 0-4.758.479-6.203 1.435-1.446.957-2.17 2.312-2.17 4.066 0 2.392 1.247 4.119 3.742 5.182 2.499 1.059 6.679 1.615 12.544 1.664 0 .036.008.107.02.211.01.104.014.18.014.229 0 .967-.29 1.69-.871 2.168-.581.476-1.457.716-2.62.716-1.055 0-1.865-.175-2.428-.524-.563-.348-.899-.873-1.011-1.57h-8.067c.037 2.098 1.029 3.66 2.981 4.683 1.951 1.025 4.93 1.537 8.929 1.537 3.842 0 6.7-.597 8.581-1.793 1.878-1.194 2.815-3.016 2.815-5.457v-9.64c0-.597.027-1.081.083-1.448.055-.368.152-.708.285-1.027h-8.102c-.161.451-.279.907-.353 1.364-.071.459-.111.935-.111 1.426m-.183 5.4c-2.827 0-4.754-.185-5.783-.552-1.025-.368-1.539-1.011-1.539-1.93 0-.624.251-1.111.748-1.459.501-.349 1.201-.524 2.113-.524 1.486 0 2.602.347 3.348 1.038.741.692 1.113 1.736 1.113 3.131zm34.9954 1.8506v3.17h11.423v-9.988c-1.756-1.395-3.562-2.445-5.427-3.15-1.861-.702-3.777-1.054-5.739-1.054-2.648 0-5.054.566-7.218 1.702-2.164 1.134-3.795 2.774-4.902 4.92-1.105 2.15-1.654 4.545-1.654 7.195 0 2.623.548 5.074 1.648 7.351 1.093 2.276 2.673 3.965 4.735 5.069 2.058 1.104 4.432 1.655 7.114 1.655 1.95 0 3.714-.316 5.287-.948 1.576-.634 2.814-1.514 3.709-2.645.895-1.13 1.574-2.602 2.038-4.42l-3.23-.881c-.405 1.373-.907 2.456-1.506 3.243-.599.79-1.454 1.421-2.573 1.894-1.114.475-2.345.71-3.705.71-1.63 0-3.034-.248-4.223-.746-1.189-.499-2.144-1.155-2.872-1.967-.73-.81-1.295-1.702-1.7-2.673-.685-1.672-1.026-3.488-1.026-5.441 0-2.413.41-4.428 1.239-6.052.825-1.623 2.025-2.828 3.609-3.615 1.573-.787 3.254-1.181 5.025-1.181 1.543 0 3.048.298 4.519.897 1.465.596 2.582 1.235 3.342 1.912v5.043h-7.913m16.664-10.6542v19.55h2.988v-2.968c.765 1.384 1.469 2.295 2.117 2.737.645.44 1.358.66 2.134.66 1.119 0 2.258-.351 3.415-1.055l-1.157-3.071c-.811.473-1.621.709-2.43.709-.724 0-1.373-.216-1.954-.651-.574-.437-.985-1.043-1.232-1.814-.369-1.179-.555-2.466-.555-3.865v-10.232h-3.326m11.3179 9.7734c0 3.617 1.008 6.296 3.022 8.038 1.679 1.446 3.729 2.168 6.147 2.168 2.69 0 4.887-.878 6.594-2.637 1.703-1.759 2.557-4.191 2.557-7.293 0-2.514-.378-4.491-1.132-5.93-.755-1.441-1.853-2.559-3.296-3.357-1.44-.794-3.018-1.195-4.723-1.195-2.738 0-4.949.878-6.636 2.631-1.691 1.753-2.533 4.277-2.533 7.575m3.418-.005c0-2.504.547-4.376 1.635-5.622 1.091-1.247 2.462-1.87 4.116-1.87 1.642 0 3.009.628 4.096 1.878 1.091 1.251 1.635 3.161 1.635 5.723 0 2.418-.545 4.249-1.643 5.495-1.095 1.244-2.458 1.87-4.088 1.87-1.654 0-3.025-.622-4.116-1.861-1.088-1.239-1.635-3.11-1.635-5.613m32.0896-9.339v2.892c-1.523-2.214-3.586-3.324-6.196-3.324-1.157 0-2.229.221-3.228.664-1 .44-1.742.995-2.225 1.665-.485.669-.824 1.487-1.021 2.455-.135.649-.202 1.68-.202 3.091v12.107h3.327v-10.83c0-1.729.066-2.893.201-3.493.207-.871.65-1.554 1.322-2.051.673-.495 1.509-.746 2.499-.746.994 0 1.923.256 2.796.767.868.505 1.483 1.199 1.843 2.075.361.876.545 2.147.545 3.819v10.459h3.322v-19.55h-2.983m9.7643-7.9115v27.032h3.014v-2.542c.711.992 1.518 1.735 2.414 2.23.895.496 1.982.741 3.254.741 1.668 0 3.143-.425 4.418-1.284 1.276-.859 2.238-2.07 2.887-3.633.652-1.563.979-3.277.979-5.139 0-1.998-.361-3.798-1.079-5.398-.716-1.6-1.76-2.827-3.123-3.678-1.367-.852-2.805-1.279-4.308-1.279-1.105 0-2.094.232-2.973.695-.875.464-1.597 1.051-2.157 1.759v-9.504h-3.326m2.986 17.144c0-2.517.507-4.376 1.526-5.579 1.016-1.205 2.242-1.806 3.69-1.806 1.467 0 2.725.623 3.773 1.871 1.05 1.244 1.57 3.174 1.57 5.79 0 2.491-.509 4.357-1.534 5.597-1.02 1.238-2.242 1.861-3.662 1.861-1.41 0-2.655-.662-3.738-1.98-1.082-1.321-1.625-3.238-1.625-5.754" fill="#f60"/><path d="M112.6077 398.8102c-.485.056-1.243.487-1.781.919-5.12 5.015 1.454 10.782 9.059 14.124v9.541c1.778-1.133 2.75-1.185 2.802-1.347l5.822 5.767-1.941 4.962c17.037 5.876 23.882 8.141 37.738 10.457l-2.484 2.321 4.047 2.315c9.325-3.075 18.116-3.881 16.603-11.698.379 5.283-6.199 7.333-16.226 10.135l-1.94-1.184 3.718-3.074c-16.602-2.857-26.792-6.093-38.922-10.297l1.67-4.314-6.09-5.983c1.026-.27 11.645-3.827 22.694 3.881 0 0 .218.163.218.216-.321.539-1.079 1.134-1.994 1.94 3.235-.216 5.334-3.072 4.958-6.037h-1.509c.107.971-.109 1.995-.43 2.695-8.572-6.254-18.492-7.171-26.956-4.205v-7.385c-4.097-1.456-11.431-5.981-11.375-10.352.269-2.101 1.348-2.855 2.319-3.397"/><path d="M147.6202 401.2868c-9.171-4.636-17.954-8.356-31.486-8.895-17.628.379-20.377 12.079-12.022 24.314 7.871 12.345 20.379 23.507 40.272 30.462 5.766 2.043 14.231 4.364 22.425 4.472 11.753.109 23.184-3.558 22.427-14.826-.432-8.626-12.882-20.808-19.462-29.543-2.804-3.825-3.29-6.307 1.507-6.092 17.417 1.135 33.211 7.17 47.874 13.425-9.917-6.739-61.189-32.129-61.401-14.827.052 2.213 1.075 4.53 2.746 7.009 1.62 2.481 3.883 5.069 6.201 7.71 3.504 3.989 12.183 13.531 15.094 19.247 4.905 10.835-6.091 11.375-15.58 14.716l-4.046-2.315 2.484-2.321c-13.856-2.317-20.701-4.581-37.738-10.458l1.941-4.961-5.822-5.767c-.161.161-1.024.213-2.803 1.347v-9.541c-7.604-3.343-14.179-9.11-9.059-14.124.539-.432 1.297-.863 1.782-.919 9.325-5.283 34.715 1.887 34.666 1.887m54.8394-6.2066h1.207c.257 0 .452.028.596.072.152.055.26.148.332.256.072.123.115.241.115.378 0 .201-.077.368-.219.496-.146.126-.372.19-.684.19h-1.347zm-.567-2.402v4.272h1.889c.376 0 .669-.039.861-.108.199-.084.351-.212.468-.415.124-.191.18-.404.18-.641 0-.302-.1-.561-.289-.769-.199-.201-.497-.333-.906-.396.151-.068.263-.137.341-.211.158-.157.32-.34.461-.568l.743-1.164h-.708l-.556.88c-.166.267-.31.456-.409.598-.109.134-.202.23-.289.286-.087.052-.165.096-.253.117-.066.006-.167.016-.315.016h-.651v-1.897z" fill="#f60"/><path d="M203.6136 390.7014c2.243 0 4.064 1.825 4.064 4.058 0 2.244-1.821 4.066-4.064 4.066-2.237 0-4.057-1.822-4.057-4.066 0-2.233 1.82-4.058 4.057-4.058m-3.428 4.058c0 1.893 1.535 3.429 3.428 3.429 1.891 0 3.429-1.536 3.429-3.429 0-1.883-1.538-3.422-3.429-3.422-1.893 0-3.428 1.539-3.428 3.422m38.9837 19.1562v-23.015c1.599 0 3.385 1.449 3.385 3.049v1.206h1.917c1.283.067 2.76 1.865 2.76 2.763v5.121c0 .963-1.088 1.66-1.603 2.045.515.451 1.603 1.217 1.603 2.181v6.65zm4.737-7.614c0-.382-.318-1.026-.705-1.409-.06-.068-.254-.258-.254-.258-.03-.026-.064-.063-.13-.063h1.089v-6.653h-1.344v13.183h1.344zm12.796-7.293v10.304h-8.126v-14.084h4.031c.642.064 1.413.323 2.046.769.39.257.71.51 1.029.833.576.64 1.02 1.406 1.02 2.178m-4.924 7.613h1.726v-8.765h-1.726zm-4.036 7.294v-2.814h9.746v-20.201c1.089 0 3.443 1.051 3.443 3.239v16.962c.702 0 1.281 2.048 1.281 2.814zm29.153-20.3618v2.151h6.834c.988 0 1.88 1.686 2.407 2.598h-9.241v1.822h5.139c1.46 0 3.836 2.021 3.904 3.061v10.73h-21.989v-13.791h8.845v-1.822h-8.845v-2.598h8.845v-2.151h-9.103v-2.665h20.621c.848 0 1.626 1.687 2.278 2.665zm0 12.166h1.757c.258 0 .521.067.778.264.326.194 1.888 2.146 2.084 2.345h-4.619v2.989h5.009v-8.591h-5.009zm-8.979 0h4.877v-2.992h-4.877zm0 5.598h4.877v-2.989h-4.877zm24.448-17.4452v6.485h14.057c1.269 0 3.553 2.103 3.613 3.156v10.402h-21.821v-19.811c0-1.583.953-3.226 2.733-3.226h16.657c1.256 0 2.765 2.004 3.025 2.994zm8.92 17.084h4.637v-7.637h-4.637zm-8.889 0h4.873v-7.637h-4.873zm26.3655-17.084v6.485h14.06c1.274 0 3.554 2.103 3.622 3.156v10.402h-21.821v-19.811c0-1.583.953-3.226 2.731-3.226h16.652c1.257 0 2.766 2.004 3.032 2.994zm8.928 17.084h4.639v-7.637h-4.639zm-8.887 0h4.865v-7.637h-4.865zm32.1501-12.8531v.722h1.635v-.621h9.912s-.242-1.335-2.406-1.335h-7.4v-3.581c0-2.716-1.741-3.041-1.741-3.041v6.52h-11.807v1.336h11.807" fill="#f60"/><path d="M342.9189 395.0523h1.764s-1.837-2.366-2.391-2.988c-.552-.614-1.288-1.599-2.354-1.599-.597 0-.793-.014-.793-.014l3.774 4.601m16.8534 0h-1.764s1.839-2.366 2.389-2.988c.553-.614 1.29-1.599 2.355-1.599.594 0 .792-.014.792-.014l-3.772 4.601m.2168 16.596c2.109 0 2.51 1.339 2.51 1.339h-9.887l.719.928h-1.624l-.829-1.032h-6.647l.819 1.032h-1.695l-4.211-5.476h1.802v-7.486s.184-.024.426 0c2.615 0 2.835.343 2.835.343h15.782c2.098 0 2.302 1.253 2.302 1.253h-9.819v2.189h7.517c2.069 0 2.405 1.327 2.405 1.327h-9.922v2.157h7.517c2.069 0 2.405 1.352 2.405 1.352h-9.922v2.074zm-17.517-7.011h8.374v-2.086h-8.374zm0 3.378h8.374v-2.055h-8.374zm8.376 1.459h-8.376l-.008.744.428.607.562.72h7.394zm16.5913 4.4413v-23.251h19.563c1.472 0 2.032 1.397 1.96 2.843v20.408zm19.94-20.239c0-.842-.185-1.501-1.291-1.501h-17.189v20.39h18.48z" fill="#f60"/><path d="M376.1575 404.484l-4.945-8.917s1.659-.312 2.415 1.26l4.204 7.636-1.674.021" fill="#f60"/><path d="M382.3366 397.2286c0-.484-.173-.724-.519-.724h-1.651v-1.31h2.099c1.295 0 1.722.472 1.654 1.918 0 0-.013 8.689 0 8.689 1.629 0 1.73 1.363 1.73 1.363l-1.73-.017v2.995h-1.583v-2.995h-11.124v-1.446h11.124v-8.473" fill="#f60"/></g></svg>