<svg xmlns="http://www.w3.org/2000/svg" height="800" width="1200" viewBox="-73.055055 -24.334675 633.14381 146.00805"><defs><clipPath id="a" clipPathUnits="userSpaceOnUse"><path d="M0 0h648v846H0z"/></clipPath></defs><path d="M408.7297 68.9062l18.0865-31.1865 2.362-37.7141L425.1242 0l-50.0937 86.356 2.1163 3.6464zm4.283 7.3094l-33.9953 16.992 2.0996 3.6575 99.8134.1843 2.0159-3.49-34.079-17.3103zM437.286.0223l-4.3499-.0167 2.1499 37.7197 17.9636 31.2926L484.8 90.3654l2.2336-3.8083z" fill="#d01931"/><g clip-path="url(#a)" transform="matrix(5.58397 0 0 -5.58397 -3054.4293 751.5888)" fill="#2b2c2b"><path d="M599.9731 123.7541l-.002-2.305c-.005-2.696-1.854-4.207-4.434-4.28h-.558c-2.582.107-4.413 1.616-4.408 4.295v2.305c.009 2.702 1.858 4.201 4.45 4.275.131.002.385 0 .513 0 2.601-.083 4.446-1.609 4.439-4.29m-4.88 2.053c-1.017-.056-1.994-.581-1.998-2.048v-2.31c-.004-1.411.971-1.979 1.989-2.041.052-.006.308-.006.364-.003.998.056 1.987.598 1.989 2.038l.003 2.311c.005 1.451-.985 1.994-1.999 2.053-.125.009-.231.009-.348 0m8.7672-2.3342s3.79 4.313 4.016 4.553l3.168-.008-4.605-5.203 4.832-5.359-3.21.005-4.205 4.676-.008-4.669-2.549.005.024 13.137 2.547-.004zm-36.0405-1.535l.005 1.859c.007 2.701-1.88 4.213-4.465 4.301l-.487.003c-2.602-.081-4.452-1.585-4.454-4.284l-.005-2.293c-.005-2.572 1.91-4.169 4.385-4.298.263-.005.4.002.577 0 3.099-.005 4.258 1.565 4.4 3.361l-2.332.006c-.062-.34-.177-1.212-2.13-1.21-.343.004-.818.088-1.159.2-1.448.485-1.217 2.272-1.217 2.37zm-6.884 2.051c0 1.389.923 1.93 2.017 1.973.117.003.236.006.339-.002 1.109-.046 2.037-.632 2.034-1.981v-.179l-4.394.004zm17.5624-2.0667l.004 1.855c.007 2.701-1.882 4.213-4.469 4.305h-.483c-2.606-.08-4.461-1.585-4.465-4.283l-.003-2.295c-.005-2.567 1.908-4.171 4.387-4.298.27-.005.401 0 .58 0 3.104-.005 4.255 1.569 4.398 3.36l-2.319.009c-.076-.341-.181-1.212-2.146-1.209-.34.003-.81.088-1.146.201-1.461.482-1.221 2.27-1.223 2.366zm-6.892 2.045c.004 1.393.931 1.935 2.017 1.976.114.004.238.002.345-.003 1.105-.044 2.034-.631 2.031-1.978v-.18l-4.396.006zm13.2344 4.0762c-1.181.003-1.99-.319-2.435-.7l.003 3.301-2.53.004-.021-13.137h.442s1.124.629 1.185.65c.163-.173 1.271-.986 2.803-.986.195-.002.375-.017.565-.005 2.56.053 4.415 1.642 4.421 4.28l.002 2.292c.005 2.58-1.854 4.299-4.435 4.301m1.901-6.602c-.001-1.438-1-1.979-1.994-2.044-.052 0-.316.002-.363.005-1.016.068-1.991.628-1.991 2.043l.006 2.309c.002 1.472.981 1.988 1.994 2.055.122.009.232.013.356-.001 1.004-.069 1.997-.599 1.995-2.061zm-28.6479-3.8915l-4.863 5.425c.242-.014.482-.024.728-.024 1.671-.002 3.751 1.052 3.754 3.728.009 3.209-2.655 4.012-5.016 4.014l-5.67.014-.027-13.136 2.569-.006v5.863l5.27-5.872zm-8.509 10.906l3.081-.009c1.423 0 2.682-.451 2.682-1.804-.004-1.357-.79-1.843-2.689-1.834l-3.082.002z"/></g></svg>